<svg width="35" height="35" viewBox="0 0 35 35" fill="none" xmlns="http://www.w3.org/2000/svg">
<g clip-path="url(#clip0_9545_3302)">
<path d="M34.9209 1.5002C35.0005 1.30144 35.02 1.08369 34.977 0.873962C34.9339 0.664233 34.8303 0.471741 34.6789 0.320352C34.5275 0.168963 34.335 0.0653336 34.1253 0.0223111C33.9156 -0.0207115 33.6978 -0.00123505 33.4991 0.0783258L1.6775 12.8074H1.67531L0.686562 13.2011C0.499291 13.2758 0.336311 13.4008 0.215627 13.5624C0.0949434 13.7239 0.0212513 13.9156 0.00269142 14.1164C-0.0158685 14.3171 0.021426 14.5191 0.110455 14.7C0.199485 14.8809 0.336784 15.0337 0.507187 15.1414L1.40406 15.7102L1.40625 15.7146L12.3328 22.6665L19.2847 33.593L19.2891 33.5974L19.8578 34.4943C19.9659 34.664 20.1188 34.8006 20.2995 34.8891C20.4803 34.9776 20.682 35.0144 20.8824 34.9957C21.0827 34.9769 21.274 34.9032 21.4352 34.7827C21.5964 34.6622 21.7212 34.4996 21.7959 34.3127L34.9209 1.5002ZM30.9112 5.63458L14.5181 22.0277L14.0478 21.2883C13.9616 21.1526 13.8466 21.0376 13.7109 20.9514L12.9716 20.4811L29.3647 4.08801L31.9416 3.0577L30.9112 5.63458Z" fill="#0F3FB2"/>
</g>
<defs>
<clipPath id="clip0_9545_3302">
<rect width="35" height="35" fill="white"/>
</clipPath>
</defs>
</svg>
