<svg width="44" height="42" viewBox="0 0 44 42" fill="none" xmlns="http://www.w3.org/2000/svg">
<path fill-rule="evenodd" clip-rule="evenodd" d="M22.6125 37.0234C24.1518 36.9165 25.6778 36.6675 27.1713 36.2797C29.0143 36.8421 30.9626 36.9694 32.8631 36.6516C32.9383 36.6394 33.0144 36.6336 33.0906 36.6341C33.7687 36.6341 34.6591 37.0278 35.9562 37.8591V36.4919C35.9565 36.2553 36.0197 36.0231 36.1392 35.819C36.2587 35.6149 36.4304 35.4463 36.6366 35.3303C37.2009 35.0109 37.7259 34.6434 38.205 34.2388C40.095 32.6375 41.1625 30.5025 41.1625 28.2406C41.1625 27.4816 41.0422 26.7444 40.8147 26.04C41.3856 24.9747 41.8472 23.8547 42.1863 22.6931C43.2825 24.336 43.8699 26.2656 43.875 28.2406C43.875 31.3141 42.4444 34.1797 39.9703 36.2753C39.5574 36.6248 39.1226 36.9478 38.6688 37.2422V40.4381C38.6688 41.5384 37.4 42.1706 36.5053 41.5166C35.6593 40.8841 34.7833 40.2928 33.8803 39.7447C33.6217 39.5899 33.3528 39.4532 33.0753 39.3356C32.3316 39.4472 31.5703 39.5041 30.8025 39.5041C27.7138 39.5041 24.8591 38.5788 22.6125 37.0234ZM6.28063 30.6316C2.37813 27.3219 0.125 22.8134 0.125 17.9812C0.125 8.10906 9.43937 0.21875 20.8122 0.21875C32.1872 0.21875 41.5016 8.10906 41.5016 17.9812C41.5016 27.8556 32.185 35.7459 20.8122 35.7459C19.5347 35.7459 18.2703 35.6475 17.0322 35.4506C16.4963 35.5775 14.3547 36.8506 11.2681 39.1037C10.1503 39.9219 8.56437 39.1322 8.56437 37.7562V32.305C7.76507 31.8011 7.00196 31.2419 6.28063 30.6316ZM17.1066 32.0884C17.2006 32.0884 17.2969 32.095 17.3909 32.1103C18.5066 32.2984 19.6528 32.3947 20.8122 32.3947C30.4197 32.3947 38.1087 25.8803 38.1087 17.9812C38.1087 10.0844 30.4197 3.57 20.8122 3.57C11.2091 3.57 3.51563 10.0844 3.51563 17.9812C3.51563 21.8006 5.31156 25.3969 8.48781 28.0875C9.28625 28.7612 10.1634 29.3738 11.1041 29.9075C11.6313 30.205 11.9572 30.7606 11.9572 31.36V34.5034C14.3984 32.865 16.0041 32.0884 17.1066 32.0884ZM11.9944 21.3347C10.4959 21.3347 9.28187 20.1316 9.28187 18.6528C9.28187 17.1719 10.4959 15.9709 11.9944 15.9709C13.4928 15.9709 14.7069 17.1719 14.7069 18.6528C14.7069 20.1338 13.4928 21.3347 11.9944 21.3347ZM20.8122 21.3347C19.3137 21.3347 18.0997 20.1316 18.0997 18.6528C18.0997 17.1719 19.3137 15.9709 20.8122 15.9709C22.3106 15.9709 23.5247 17.1719 23.5247 18.6528C23.5247 20.1338 22.3106 21.3347 20.8122 21.3347ZM29.63 21.3347C28.1316 21.3347 26.9175 20.1316 26.9175 18.6528C26.9175 17.1719 28.1316 15.9709 29.63 15.9709C31.1284 15.9709 32.3425 17.1719 32.3425 18.6528C32.3425 20.1338 31.1284 21.3347 29.63 21.3347Z" fill="white"/>
</svg>
