<svg width="19" height="21" viewBox="0 0 19 21" fill="none" xmlns="http://www.w3.org/2000/svg">
<path fill-rule="evenodd" clip-rule="evenodd" d="M18.75 17.9381C18.75 19.425 17.55 20.625 16.0631 20.625H2.68688C1.2 20.625 0 19.425 0 17.9381V4.56188C0 3.075 1.2 1.875 2.68688 1.875H5.625V0.946875C5.62651 0.726278 5.70425 0.512989 5.84504 0.343154C5.98583 0.173319 6.18101 0.0573849 6.3975 0.0149998L6.5625 0C7.08 0 7.5 0.40125 7.5 0.946875V1.875H11.25V0.946875C11.2515 0.726278 11.3293 0.512989 11.47 0.343154C11.6108 0.173319 11.806 0.0573849 12.0225 0.0149998L12.1875 0C12.705 0 13.125 0.40125 13.125 0.946875V1.875H16.0631C17.55 1.875 18.75 3.075 18.75 4.56188V17.9381ZM1.875 7.5V17.4937C1.875 18.1875 2.4375 18.75 3.13125 18.75H15.6187C16.3125 18.75 16.875 18.1875 16.875 17.4937V7.5H1.875ZM4.6875 15C5.14687 15 5.53125 15.3431 5.61 15.7725L5.625 15.9375C5.625 16.3969 5.28187 16.7812 4.8525 16.86L4.6875 16.875C4.43962 16.8726 4.20258 16.773 4.02729 16.5977C3.852 16.4224 3.75244 16.1854 3.75 15.9375C3.75 15.4781 4.09313 15.0938 4.5225 15.015L4.6875 15ZM9.375 15C9.83438 15 10.2187 15.3431 10.2975 15.7725L10.3125 15.9375C10.3125 16.3969 9.96938 16.7812 9.54 16.86L9.375 16.875C9.12712 16.8726 8.89008 16.773 8.71479 16.5977C8.5395 16.4224 8.43994 16.1854 8.4375 15.9375C8.4375 15.4781 8.78063 15.0938 9.21 15.015L9.375 15ZM14.0625 15C14.5219 15 14.9062 15.3431 14.985 15.7725L15 15.9375C15 16.3969 14.6569 16.7812 14.2275 16.86L14.0625 16.875C13.8146 16.8726 13.5776 16.773 13.4023 16.5977C13.227 16.4224 13.1274 16.1854 13.125 15.9375C13.125 15.4781 13.4681 15.0938 13.8975 15.015L14.0625 15ZM4.6875 12.1875C5.14687 12.1875 5.53125 12.5306 5.61 12.96L5.625 13.125C5.625 13.5844 5.28187 13.9687 4.8525 14.0475L4.6875 14.0625C4.43962 14.0601 4.20258 13.9605 4.02729 13.7852C3.852 13.6099 3.75244 13.3729 3.75 13.125C3.75 12.6656 4.09313 12.2813 4.5225 12.2025L4.6875 12.1875ZM9.375 12.1875C9.83438 12.1875 10.2187 12.5306 10.2975 12.96L10.3125 13.125C10.3125 13.5844 9.96938 13.9687 9.54 14.0475L9.375 14.0625C9.12712 14.0601 8.89008 13.9605 8.71479 13.7852C8.5395 13.6099 8.43994 13.3729 8.4375 13.125C8.4375 12.6656 8.78063 12.2813 9.21 12.2025L9.375 12.1875ZM14.0625 12.1875C14.5219 12.1875 14.9062 12.5306 14.985 12.96L15 13.125C15 13.5844 14.6569 13.9687 14.2275 14.0475L14.0625 14.0625C13.8146 14.0601 13.5776 13.9605 13.4023 13.7852C13.227 13.6099 13.1274 13.3729 13.125 13.125C13.125 12.6656 13.4681 12.2813 13.8975 12.2025L14.0625 12.1875ZM4.6875 9.375C5.14687 9.375 5.53125 9.71813 5.61 10.1475L5.625 10.3125C5.625 10.7719 5.28187 11.1562 4.8525 11.235L4.6875 11.25C4.43962 11.2476 4.20258 11.148 4.02729 10.9727C3.852 10.7974 3.75244 10.5604 3.75 10.3125C3.75 9.85312 4.09313 9.46875 4.5225 9.39L4.6875 9.375ZM9.375 9.375C9.83438 9.375 10.2187 9.71813 10.2975 10.1475L10.3125 10.3125C10.3125 10.7719 9.96938 11.1562 9.54 11.235L9.375 11.25C9.12712 11.2476 8.89008 11.148 8.71479 10.9727C8.5395 10.7974 8.43994 10.5604 8.4375 10.3125C8.4375 9.85312 8.78063 9.46875 9.21 9.39L9.375 9.375ZM14.0625 9.375C14.5219 9.375 14.9062 9.71813 14.985 10.1475L15 10.3125C15 10.7719 14.6569 11.1562 14.2275 11.235L14.0625 11.25C13.8146 11.2476 13.5776 11.148 13.4023 10.9727C13.227 10.7974 13.1274 10.5604 13.125 10.3125C13.125 9.85312 13.4681 9.46875 13.8975 9.39L14.0625 9.375ZM1.875 5.625H16.875V5.00625C16.875 4.3125 16.3125 3.75 15.6187 3.75H3.13125C2.4375 3.75 1.875 4.3125 1.875 5.00625V5.625Z" fill="#0B0230"/>
</svg>
