<svg width="24" height="19" viewBox="0 0 24 19" fill="none" xmlns="http://www.w3.org/2000/svg">
<path d="M3.75 0H20C20.9946 0 21.9484 0.395088 22.6517 1.09835C23.3549 1.80161 23.75 2.75544 23.75 3.75V15C23.75 15.9946 23.3549 16.9484 22.6517 17.6517C21.9484 18.3549 20.9946 18.75 20 18.75H3.75C2.75544 18.75 1.80161 18.3549 1.09835 17.6517C0.395088 16.9484 0 15.9946 0 15V3.75C0 2.75544 0.395088 1.80161 1.09835 1.09835C1.80161 0.395088 2.75544 0 3.75 0ZM3.75 1.25C3.125 1.25 2.575 1.4625 2.15 1.8375L11.875 8.125L21.6 1.8375C21.175 1.4625 20.625 1.25 20 1.25H3.75ZM11.875 9.6375L1.4125 2.85C1.3125 3.125 1.25 3.4375 1.25 3.75V15C1.25 15.663 1.51339 16.2989 1.98223 16.7678C2.45107 17.2366 3.08696 17.5 3.75 17.5H20C20.663 17.5 21.2989 17.2366 21.7678 16.7678C22.2366 16.2989 22.5 15.663 22.5 15V3.75C22.5 3.4375 22.4375 3.125 22.3375 2.85L11.875 9.6375Z" fill="#0B0230"/>
</svg>
