<svg width="30" height="19" viewBox="0 0 30 19" fill="none" xmlns="http://www.w3.org/2000/svg">
<path d="M15.0054 18.8143C23.8746 18.8143 30 11.6464 30 9.40714C30 7.15661 23.8639 3.00744e-08 15.0054 3.00744e-08C6.25714 -0.000535684 0 7.15607 0 9.40661C0 11.6459 6.24589 18.8143 15.0054 18.8143ZM15.0054 17.0791C7.78286 17.0791 1.92107 10.9537 1.92107 9.40607C1.92107 8.1 7.78286 1.73357 15.0054 1.73357C22.2064 1.73357 28.0789 8.1 28.0789 9.40607C28.0789 10.9543 22.2064 17.0791 15.0054 17.0791ZM15.0054 15.5534C18.4195 15.5534 21.1634 12.7543 21.1634 9.40607C21.1634 5.97053 18.4195 3.25929 15.0054 3.25929C11.5698 3.25929 8.81464 5.97 8.83661 9.40607C8.84732 12.7543 11.5698 15.5534 15.0054 15.5534ZM15.0054 11.4482C13.8643 11.4482 12.9418 10.5257 12.9418 9.40607C12.9418 8.27571 13.8637 7.365 15.0054 7.365C16.1357 7.365 17.0582 8.27571 17.0582 9.40607C17.0582 10.5257 16.1362 11.4482 15.0054 11.4482Z" fill="#0B0230"/>
</svg>
