<svg width="25" height="25" viewBox="0 0 25 25" fill="none" xmlns="http://www.w3.org/2000/svg">
<path d="M17.55 0V1.875H20.8903L17.7262 5.06813C16.5953 4.21416 15.2171 3.75148 13.8 3.75C12.0469 3.75 10.41 4.44375 9.17063 5.68406C8.558 6.28929 8.07163 7.01012 7.7397 7.80475C7.40778 8.59938 7.2369 9.452 7.23699 10.3132C7.23708 11.1743 7.40812 12.0269 7.74021 12.8215C8.0723 13.616 8.55882 14.3368 9.17156 14.9419C9.98719 15.7575 10.9584 16.3434 12.0422 16.6406C12.1491 16.5591 12.2691 16.4738 12.3647 16.3781C12.7576 15.9785 13.04 15.4835 13.1841 14.9419C12.1634 14.8159 11.2145 14.3515 10.4888 13.6228C9.60375 12.7388 9.1125 11.565 9.1125 10.3125C9.1125 9.06 9.60469 7.88813 10.4906 7.00313C11.3738 6.11531 12.5475 5.625 13.8 5.625C15.0525 5.625 16.2253 6.11719 17.1094 7.00313C17.5468 7.43599 17.8939 7.95144 18.1305 8.51955C18.367 9.08766 18.4884 9.6971 18.4875 10.3125C18.4875 11.1234 18.2578 11.8781 17.8725 12.5681C17.9625 13.0519 18.0187 13.56 18.0187 14.0625C18.0187 14.5294 17.9794 14.9906 17.9016 15.4406C18.0891 15.2878 18.2559 15.1144 18.4294 14.9419C19.6687 13.7006 20.3625 12.0656 20.3625 10.3125C20.3625 8.87813 19.89 7.515 19.0444 6.38625L22.2375 3.22313V6.5625H24.1125V0H17.55ZM11.8078 7.73438C11.7009 7.81594 11.5809 7.90125 11.4853 7.99688C11.0803 8.40375 10.8159 8.89688 10.6659 9.43406C11.6878 9.56531 12.6206 10.0116 13.3612 10.7522C14.2472 11.6363 14.7394 12.81 14.7394 14.0616C14.7394 15.3131 14.2472 16.4859 13.3612 17.3709C12.4762 18.2597 11.3025 18.75 10.05 18.75C8.7975 18.75 7.62469 18.2578 6.74063 17.3719C6.30286 16.9393 5.95556 16.4239 5.71896 15.8557C5.48236 15.2875 5.36118 14.678 5.3625 14.0625C5.3625 13.2516 5.59219 12.4969 5.9775 11.8069C5.88337 11.3142 5.83442 10.814 5.83125 10.3125C5.83125 9.84563 5.87063 9.38438 5.94844 8.93438C5.76094 9.08719 5.595 9.26062 5.42063 9.43406C4.18313 10.6725 3.4875 12.3094 3.4875 14.0625C3.4875 15.4969 3.96 16.86 4.80563 17.9888L3.225 19.5703L1.35 17.6953L0 19.0134L1.875 20.8884L0 22.7634L1.35 24.1134L3.225 22.2384L5.1 24.1134L6.41719 22.7634L4.54219 20.8884L6.12469 19.3078C7.25453 20.1631 8.63295 20.6256 10.05 20.625C11.8031 20.625 13.44 19.9313 14.6794 18.6909C15.9187 17.4525 16.6125 15.8156 16.6125 14.0625C16.6125 12.3094 15.9188 10.6744 14.6784 9.43313C13.8628 8.6175 12.8916 8.03156 11.8078 7.73438Z" fill="#0B0230"/>
</svg>
