<svg width="41" height="22" viewBox="0 0 41 22" fill="none" xmlns="http://www.w3.org/2000/svg">
<path d="M14.326 0.503594C9.8551 1.90529 6.61202 6.0746 6.61202 11C6.61202 15.9254 9.8551 20.0947 14.326 21.4964C13.2824 21.8236 12.1719 22 11.02 22C4.93383 22 0 17.0751 0 11C0 4.92486 4.93383 0 11.02 0C12.1719 0 13.2824 0.176414 14.326 0.503594Z" fill="#0F3FB2"/>
<path d="M30.4153 11C30.4153 17.0751 25.4815 22 19.3953 22C13.3091 22 8.37523 17.0751 8.37523 11C8.37523 4.92487 13.3091 0 19.3953 0C25.4815 0 30.4153 4.92487 30.4153 11Z" fill="#0F3FB2"/>
<path d="M31.9581 11C31.9581 6.0746 28.715 1.90526 24.2441 0.503594C25.2877 0.176387 26.3983 0 27.5501 0C31.3595 0 34.7175 1.92938 36.6967 4.86259C35.5138 6.61568 34.8233 8.72736 34.8233 11C34.8233 13.2726 35.5138 15.3843 36.6967 17.1374C34.7175 20.0706 31.3595 22 27.5501 22C26.3983 22 25.2877 21.8236 24.2441 21.4964C28.715 20.0947 31.9581 15.9254 31.9581 11Z" fill="#0F3FB2"/>
<path d="M38.4599 4.86259C37.277 6.61568 36.5865 8.72736 36.5865 11C36.5865 13.2726 37.277 15.3843 38.4599 17.1374C39.6429 15.3843 40.3333 13.2726 40.3333 11C40.3333 8.72736 39.6429 6.61568 38.4599 4.86259Z" fill="#0F3FB2"/>
</svg>
