<svg width="20" height="25" viewBox="0 0 20 25" fill="none" xmlns="http://www.w3.org/2000/svg">
<path d="M10 0C11.6576 0 13.2473 0.65848 14.4194 1.83058C15.5915 3.00269 16.25 4.5924 16.25 6.25V10C17.2446 10 18.1984 10.3951 18.9017 11.0983C19.6049 11.8016 20 12.7554 20 13.75V21.25C20 22.2446 19.6049 23.1984 18.9017 23.9017C18.1984 24.6049 17.2446 25 16.25 25H3.75C2.75544 25 1.80161 24.6049 1.09835 23.9017C0.395088 23.1984 0 22.2446 0 21.25V13.75C0 12.7554 0.395088 11.8016 1.09835 11.0983C1.80161 10.3951 2.75544 10 3.75 10V6.25C3.75 4.5924 4.40848 3.00269 5.58058 1.83058C6.75269 0.65848 8.3424 0 10 0ZM10 15C9.36928 14.9998 8.76179 15.238 8.29931 15.6669C7.83684 16.0957 7.55355 16.6836 7.50625 17.3125L7.5 17.5C7.5 17.9945 7.64662 18.4778 7.92133 18.8889C8.19603 19.3001 8.58648 19.6205 9.04329 19.8097C9.50011 19.9989 10.0028 20.0484 10.4877 19.952C10.9727 19.8555 11.4181 19.6174 11.7678 19.2678C12.1174 18.9181 12.3555 18.4727 12.452 17.9877C12.5484 17.5028 12.4989 17.0001 12.3097 16.5433C12.1205 16.0865 11.8 15.696 11.3889 15.4213C10.9778 15.1466 10.4945 15 10 15ZM10 2.5C9.00544 2.5 8.05161 2.89509 7.34835 3.59835C6.64509 4.30161 6.25 5.25544 6.25 6.25V10H13.75V6.25C13.75 5.25544 13.3549 4.30161 12.6517 3.59835C11.9484 2.89509 10.9946 2.5 10 2.5Z" fill="#0B0230"/>
</svg>
