<svg width="19" height="30" viewBox="0 0 19 30" fill="none" xmlns="http://www.w3.org/2000/svg">
<path d="M15 1.875C15.4973 1.875 15.9742 2.07254 16.3258 2.42417C16.6775 2.77581 16.875 3.25272 16.875 3.75V26.25C16.875 26.7473 16.6775 27.2242 16.3258 27.5758C15.9742 27.9275 15.4973 28.125 15 28.125H3.75C3.25272 28.125 2.77581 27.9275 2.42418 27.5758C2.07254 27.2242 1.875 26.7473 1.875 26.25V3.75C1.875 3.25272 2.07254 2.77581 2.42418 2.42417C2.77581 2.07254 3.25272 1.875 3.75 1.875H15ZM3.75 0C2.75544 0 1.80161 0.395088 1.09835 1.09835C0.395088 1.80161 0 2.75544 0 3.75V26.25C0 27.2446 0.395088 28.1984 1.09835 28.9016C1.80161 29.6049 2.75544 30 3.75 30H15C15.9946 30 16.9484 29.6049 17.6516 28.9016C18.3549 28.1984 18.75 27.2446 18.75 26.25V3.75C18.75 2.75544 18.3549 1.80161 17.6516 1.09835C16.9484 0.395088 15.9946 0 15 0L3.75 0Z" fill="#0B0230"/>
<path d="M9.375 26.25C9.87228 26.25 10.3492 26.0525 10.7008 25.7008C11.0525 25.3492 11.25 24.8723 11.25 24.375C11.25 23.8777 11.0525 23.4008 10.7008 23.0492C10.3492 22.6975 9.87228 22.5 9.375 22.5C8.87772 22.5 8.40081 22.6975 8.04918 23.0492C7.69754 23.4008 7.5 23.8777 7.5 24.375C7.5 24.8723 7.69754 25.3492 8.04918 25.7008C8.40081 26.0525 8.87772 26.25 9.375 26.25Z" fill="#0B0230"/>
</svg>
