<svg width="23" height="23" viewBox="0 0 23 23" fill="none" xmlns="http://www.w3.org/2000/svg">
<path d="M6.25 1.875V3.75H4.375V5H6.25V6.875H7.5V5H9.375V3.75H7.5V1.875H6.25Z" fill="#0B0230"/>
<path fill-rule="evenodd" clip-rule="evenodd" d="M4.375 0C3.87772 0 3.40081 0.197544 3.04917 0.549175C2.69754 0.900806 2.5 1.37772 2.5 1.875V2.5H0V14.375H13.75V2.5H11.25V1.875C11.25 1.37772 11.0525 0.900806 10.7008 0.549175C10.3492 0.197544 9.87228 0 9.375 0H4.375ZM9.375 8.75C9.87228 8.75 10.3492 8.55246 10.7008 8.20083C11.0525 7.84919 11.25 7.37228 11.25 6.875V6.25H12.5V13.125H9.375V9.375H4.375V13.125H1.25V6.25H2.5V6.875C2.5 7.37228 2.69754 7.84919 3.04917 8.20083C3.40081 8.55246 3.87772 8.75 4.375 8.75H9.375ZM3.75 1.875C3.75 1.70924 3.81585 1.55027 3.93306 1.43306C4.05027 1.31585 4.20924 1.25 4.375 1.25H9.375C9.54076 1.25 9.69973 1.31585 9.81694 1.43306C9.93415 1.55027 10 1.70924 10 1.875V6.875C10 7.04076 9.93415 7.19973 9.81694 7.31694C9.69973 7.43415 9.54076 7.5 9.375 7.5H4.375C4.20924 7.5 4.05027 7.43415 3.93306 7.31694C3.81585 7.19973 3.75 7.04076 3.75 6.875V1.875ZM1.25 3.75H2.5V5H1.25V3.75ZM12.5 5H11.25V3.75H12.5V5ZM8.125 10.625V13.125H5.625V10.625H8.125ZM15 13.75C15 13.087 15.2634 12.4511 15.7322 11.9822C16.2011 11.5134 16.837 11.25 17.5 11.25C18.163 11.25 18.7989 11.5134 19.2678 11.9822C19.7366 12.4511 20 13.087 20 13.75C20 14.413 19.7366 15.0489 19.2678 15.5178C18.7989 15.9866 18.163 16.25 17.5 16.25C16.837 16.25 16.2011 15.9866 15.7322 15.5178C15.2634 15.0489 15 14.413 15 13.75ZM17.5 12.5C17.1685 12.5 16.8505 12.6317 16.6161 12.8661C16.3817 13.1005 16.25 13.4185 16.25 13.75C16.25 14.0815 16.3817 14.3995 16.6161 14.6339C16.8505 14.8683 17.1685 15 17.5 15C17.8315 15 18.1495 14.8683 18.3839 14.6339C18.6183 14.3995 18.75 14.0815 18.75 13.75C18.75 13.4185 18.6183 13.1005 18.3839 12.8661C18.1495 12.6317 17.8315 12.5 17.5 12.5ZM17.5 16.875C15.8313 16.875 12.5 17.7887 12.5 19.6025V21.25H6.875C6.41937 21.25 6.12375 21.0856 5.93563 20.8737C5.7375 20.6506 5.625 20.3356 5.625 20V17.7588L7.68312 19.8169L8.56688 18.9331L5 15.3663L1.43313 18.9331L2.31687 19.8169L4.375 17.7588V20C4.375 20.6019 4.575 21.2244 5.00187 21.7044C5.43875 22.1956 6.08063 22.5 6.875 22.5H22.5V19.6025C22.5 17.7887 19.1688 16.875 17.5 16.875ZM13.9338 19.2919C13.7569 19.47 13.75 19.5675 13.75 19.6025V21.25H21.25V19.6025C21.25 19.5675 21.2438 19.47 21.0662 19.2919C20.8787 19.1025 20.5631 18.8956 20.125 18.7044C19.2425 18.3175 18.1625 18.125 17.5 18.125C16.8375 18.125 15.7575 18.3187 14.875 18.7037C14.4369 18.895 14.1219 19.1025 13.9338 19.2919Z" fill="#0B0230"/>
</svg>
